<?xml version="1.0" encoding="UTF-8"?>
<svg id="Layer_1" data-name="Layer 1" xmlns="http://www.w3.org/2000/svg" viewBox="0 0 273.92 421.12">
  <defs>
    <style>
      .cls-1 {
        fill: #fff;
        stroke-width: 0px;
      }
    </style>
  </defs>
  <path class="cls-1" d="M247.66,56.68c2.39.41,3.36.69,4.33.73q21.91.89,21.92,23.24c0,108.22,0,216.45,0,324.67q0,15.77-15.3,15.79c-81.42,0-162.84,0-244.26,0-13.89,0-14.13-.25-14.13-14.1C.21,295.1.34,183.19,0,71.28c-.03-9.61,3.09-13.44,12.24-15.65C85.95,37.83,159.54,19.55,233.18,1.47c12.99-3.19,14.46-1.95,14.48,11.57.02,14.35,0,28.7,0,43.65ZM12.95,69.93v338.29h248.08V69.93H12.95ZM235.25,13.72c-57.68,14.19-114.09,28.06-170.5,41.94.1.37.21.74.31,1.11h170.18V13.72Z"/>
  <path class="cls-1" d="M137.11,105.28c27.11,0,54.22.26,81.33-.15,8.43-.13,11.98,2.06,11.91,11.19-.35,44.84-.24,89.69-.02,134.54.04,8.06-2.71,11.36-11.08,11.32-54.89-.23-109.78-.24-164.66,0-8.86.04-11.65-3.59-11.6-12.04.23-44.51.25-89.03-.02-133.54-.05-8.74,3.1-11.63,11.81-11.49,27.44.44,54.89.16,82.33.17ZM217.48,117.79H56.34v81.53c12.46-12.34,23.84-23.64,35.26-34.9,9.59-9.45,14.74-8.88,22.06,2.57,9.38,14.66,18.56,29.45,27.99,44.07,6.88,10.67,12.24,11.14,21.59,2.23,4.36-4.16,8.67-8.39,13.04-12.54,10.52-9.97,14.69-9.69,23.55,1.46,5.46,6.88,10.98,13.71,17.65,22.04v-106.46Z"/>
  <path class="cls-1" d="M137.01,342.12c-26.43,0-52.85,0-79.28,0-2.34,0-5.11.76-6.92-.22-2.77-1.5-4.89-4.21-7.29-6.41,2.37-1.86,4.57-4.99,7.15-5.34,5.91-.8,12.01-.25,18.03-.25,49.17,0,98.34,0,147.52.02,3,0,6.25-.41,8.92.61,1.97.75,4.38,3.52,4.38,5.38,0,1.9-2.35,4.7-4.32,5.49-2.64,1.05-5.9.69-8.9.7-26.43.04-52.85.02-79.28.02Z"/>
  <path class="cls-1" d="M136.92,295.75c26.41,0,52.82-.01,79.22.02,3,0,6.24-.4,8.91.61,1.99.75,4.47,3.47,4.48,5.33,0,1.92-2.34,4.62-4.33,5.57-2.23,1.06-5.22.7-7.87.7-53.48.03-106.97.03-160.45.03-1.34,0-2.97.49-3.96-.11-3.25-1.97-6.26-4.32-9.36-6.53,3.04-1.88,6.01-5.23,9.13-5.38,12.34-.62,24.72-.24,37.09-.24,15.71,0,31.42,0,47.13,0Z"/>
  <path class="cls-1" d="M135.91,376.33c-26.09,0-52.17,0-78.26,0-2.67,0-5.77.77-7.91-.32-2.51-1.28-4.2-4.19-6.24-6.4,2.1-1.77,4.07-4.82,6.33-5.06,6.95-.72,14.02-.4,21.04-.4,48.16-.01,96.32,0,144.48,0,2.67,0,5.69-.71,7.93.29,2.54,1.13,4.39,3.83,6.54,5.84-2.21,2-4.17,5.27-6.67,5.75-4.84.93-9.98.31-15,.31-24.08,0-48.16,0-72.24,0Z"/>
  <path class="cls-1" d="M172.53,153.23c.25,8.83-7.12,16.64-16.12,17.1-9.94.5-17.48-6.27-17.85-16.03-.36-9.52,6.99-17.64,16.28-17.99,8.91-.33,17.43,7.82,17.69,16.92Z"/>
</svg>