<?xml version="1.0" encoding="UTF-8"?>
<svg id="Layer_1" data-name="Layer 1" xmlns="http://www.w3.org/2000/svg" viewBox="0 0 473.12 473.02">
  <defs>
    <style>
      .cls-1 {
        fill: #fff;
        stroke-width: 0px;
      }
    </style>
  </defs>
  <path class="cls-1" d="M0,236.52c0-75.61,0-151.22,0-226.82,0-1.27-.06-2.55.09-3.8C.49,2.65,2.92.34,6.19.05,7.02-.03,7.87,0,8.72,0c97.36,0,194.72,0,292.08,0,6.48,0,8.69,2.22,8.7,8.77,0,8.76.09,17.53-.05,26.29-.04,2.32.75,3.59,2.72,4.72,33.75,19.41,67.47,38.89,101.19,58.35,18.28,10.55,36.57,21.08,54.83,31.65,5.37,3.1,6.25,6.49,3.17,11.82-32.44,56.2-64.9,112.39-97.34,168.59-21.05,36.46-42.11,72.91-63.1,109.41-.84,1.47-1.34,3.35-1.35,5.04-.11,13.3-.06,26.61-.08,39.92,0,6.16-2.28,8.44-8.36,8.44-97.47,0-194.93,0-292.4.01-6.57,0-8.71-2.14-8.71-8.72,0-75.92,0-151.85,0-227.77ZM295.41,458.97V14.11H14.13v444.86h281.27ZM309.5,54.28c0,8.08.14,15.44-.07,22.78-.08,2.81.82,4.3,3.26,5.7,31.11,17.84,62.17,35.79,93.21,53.75,11.82,6.83,14.92,18.68,8.06,30.59-16.39,28.42-32.8,56.83-49.2,85.24-17.93,31.06-35.88,62.12-53.76,93.22-.8,1.39-1.44,3.12-1.45,4.69-.1,13.3-.04,26.6-.02,39.91,0,.77.11,1.55.17,2.32.2.06.41.11.61.17,48.74-84.42,97.48-168.84,146.32-253.43-49.06-28.32-97.74-56.43-147.13-84.94ZM309.67,97.09c-.09,1.17-.16,1.68-.16,2.19,0,21.22.02,42.44-.06,63.65,0,2.05.89,2.97,2.49,3.89,19.12,10.99,38.2,22.03,57.3,33.05,2.34,1.35,4.7,2.65,7.24,4.08.77-1.26,1.39-2.23,1.96-3.22,7.65-13.24,15.3-26.49,22.94-39.74,3.77-6.53,2.97-9.31-3.56-13.07-21.02-12.11-42.03-24.26-63.04-36.39-8.2-4.73-16.41-9.45-25.11-14.46ZM309.77,181.68v136.91c.18.05.36.1.54.15,19.69-34.11,39.38-68.22,59.21-102.57-20.05-11.57-39.72-22.93-59.74-34.49Z"/>
  <path class="cls-1" d="M154.86,36.9c30.41,0,60.83,0,91.24,0,15.54,0,26.51,10.97,26.51,26.52,0,48.47,0,96.94,0,145.41,0,15.81-10.83,26.8-26.6,26.81-60.93.04-121.86.04-182.79,0-15.42-.01-26.3-11.01-26.3-26.41-.01-48.79-.01-97.57,0-146.36,0-14.91,11.11-25.96,26.07-25.96,30.62-.01,61.25,0,91.87,0ZM50.83,207.56c.23.06.45.12.68.18.47-.55.96-1.1,1.42-1.67,19.4-24.23,38.79-48.46,58.2-72.68,4.6-5.74,9.43-5.55,13.46.49,8.38,12.56,16.73,25.12,25.1,37.68,1.6,2.4,3.24,4.78,5.06,7.45,1.1-1.62,1.88-2.74,2.63-3.88,9.19-13.79,18.35-27.6,27.58-41.36,4-5.96,8.79-6.11,13.27-.52,19.33,24.14,38.64,48.3,57.98,72.44.6.75,1.32,1.42,2.49,2.68,0-1.76,0-2.68,0-3.61,0-46.57-.13-93.14.11-139.7.05-8.76-4.96-14.42-14.27-14.39-59.98.24-119.96.12-179.94.12-9.48,0-13.78,4.26-13.78,13.66,0,46.57,0,93.14,0,139.7,0,1.12,0,2.25,0,3.37ZM117.24,148.08c-19.54,24.44-38.81,48.53-58.6,73.28h192.21c-19.84-24.8-39.15-48.93-58.62-73.26-.9,1.31-1.44,2.09-1.97,2.88-11.47,17.21-22.94,34.42-34.38,51.65-1.79,2.7-4.12,4.27-7.41,3.77-5.64-.87-7.71-6.52-4.05-11.68,1.65-2.31,1.5-3.85-.04-6.09-6.22-9.04-12.24-18.22-18.34-27.35-2.86-4.28-5.72-8.56-8.81-13.2Z"/>
  <path class="cls-1" d="M154.71,436.12c-30.31,0-60.61.01-90.92,0-16.27,0-26.88-10.71-26.88-27.06,0-39.07,0-78.14,0-117.22,0-15.78,10.87-26.74,26.62-26.74,60.83-.02,121.65-.02,182.48,0,15.75,0,26.61,11,26.61,26.8,0,39.39.02,78.78-.01,118.17-.01,13.13-8.48,23.32-21.29,25.71-1.75.33-3.57.34-5.36.34-30.41.02-60.83.01-91.24.01ZM50.83,316.12v3.53c0,29.89,0,59.78,0,89.66,0,8.35,4.55,12.88,12.95,12.88,60.52,0,121.03,0,181.55,0,8.95,0,13.36-4.45,13.36-13.48,0-29.78,0-59.56,0-89.35,0-1.02-.09-2.05-.15-3.25H50.83ZM258.7,301.86c0-3.12,0-6.05,0-8.98,0-9.51-4.42-13.88-13.98-13.88-59.55,0-119.1,0-178.65,0-1.48,0-2.96-.05-4.43.08-5.52.5-10.08,4.4-10.58,9.66-.4,4.26-.08,8.59-.08,13.12h207.73Z"/>
  <path class="cls-1" d="M184.7,94.71c0,16.6-13.33,30-29.93,30.07-16.57.07-30.03-13.49-30.09-30.31-.06-16.3,13.49-29.81,29.86-29.77,17.01.04,30.15,13.12,30.16,30.01ZM170.8,94.91c.18-8.9-6.89-16.19-15.83-16.32-8.86-.13-16.26,7.01-16.39,15.83-.13,8.76,7.2,16.33,15.89,16.44,8.84.1,16.14-7.03,16.32-15.95Z"/>
  <path class="cls-1" d="M154.78,385.33c24.29,0,48.58.02,72.87-.03,3.26,0,5.83.96,7.28,4,2.06,4.34-.75,9.25-5.63,9.86-1.15.14-2.32.06-3.48.06-47.52,0-95.05,0-142.57.01-.63,0-1.27,0-1.9-.03-4.6-.24-7.7-3.24-7.52-7.27.19-4,3.19-6.61,7.77-6.61,24.39-.02,48.79,0,73.18,0h0Z"/>
  <path class="cls-1" d="M173.16,339.1c18.26,0,36.52-.02,54.78.01,5.46.01,8.78,4.06,7.35,8.85-.92,3.08-3.16,4.63-6.26,4.98-1.15.13-2.32.05-3.48.05-35.46,0-70.93,0-106.39,0-4.77,0-7.62-2.05-8.16-5.79-.67-4.64,2.4-8.08,7.39-8.09,15.41-.04,30.82-.02,46.23-.02,2.85,0,5.7,0,8.55,0Z"/>
  <path class="cls-1" d="M85.58,339.1c1.48,0,2.96-.05,4.43,0,4,.17,6.93,3.02,7,6.74.07,3.6-2.61,6.79-6.36,7.05-3.47.24-6.98.25-10.44,0-3.73-.27-6.49-3.52-6.39-7.03.1-3.74,3.05-6.6,7-6.75,1.58-.06,3.17-.01,4.75-.01Z"/>
</svg>