<?xml version="1.0" encoding="UTF-8"?>
<svg id="Layer_1" data-name="Layer 1" xmlns="http://www.w3.org/2000/svg" viewBox="0 0 247.44 242.83">
  <defs>
    <style>
      .cls-1 {
        fill: #fefefe;
        stroke-width: 0px;
      }
    </style>
  </defs>
  <path class="cls-1" d="M138.08,21.29c.05,2.79-1.97,3.17-4.09,3.19-5.17.05-10.33.02-15.5.02v-.04c-4.88,0-9.76.05-14.64-.02-2.01-.04-4.2-.18-4.22-3.03-.01-2.11,1.41-3.26,3.26-3.28,10.61-.14,21.22-.19,31.83-.09,1.73.02,3.32,1.13,3.36,3.25Z"/>
  <path class="cls-1" d="M118.99,208.87c-6.61-.1-10.68,3.61-10.83,10.52-.15,6.98,4.06,10.16,10.46,11.18,6.48-.76,10.81-3.87,10.86-10.8.06-6.8-3.82-10.81-10.49-10.9ZM118.37,223.72c-2.28-.2-3.52-1.9-3.45-4.12.08-2.67,1.58-4.14,4.41-3.93,2.5.18,3.21,1.94,3.62,3.89-.52,2.64-1.87,4.4-4.58,4.16Z"/>
  <path class="cls-1" d="M46.18,88.3c-11.68.03-22.06,10.53-21.99,22.22.07,11.91,10.17,22.1,21.98,22.17,11.95.08,22.11-9.77,22.38-21.71.27-12.16-10.15-22.73-22.37-22.68ZM46.79,125.94c-8.22.23-15.66-6.78-15.89-14.99-.24-8.17,6.83-15.61,15.08-15.87,8.2-.26,15.57,6.76,15.79,15.04.21,8.33-6.65,15.58-14.98,15.82Z"/>
  <path class="cls-1" d="M86.35,98.86c-5.34-1.62-7.15-4.21-4.55-9.45,2.68-5.39-.03-9.18-3.84-12.82-3.72-3.57-7.5-5.33-12.26-2.23-4.31,2.82-7.21,1.29-8.52-3.15-1.7-5.78-5.62-7.26-11.09-7.3-5.48-.04-9.65,1.46-11.27,7.13-1.51,5.3-4.52,5.92-9.1,3.52-4.91-2.58-8.59-.33-12.16,3.26-3.6,3.64-5.6,7.5-3.08,12.28,2.75,5.22.84,7.56-4.09,9.77-7.16,3.2-8.87,16.89-2.18,19.91,7.33,3.32,10.55,6.5,5.85,13.22-.97,8.52,8.44,15.9,16.2,12.91,5.14-1.99,8.1-1.6,9.78,3.99,1.67,5.55,6.23,5.9,11.1,5.87,4.59-.03,8.87-.54,10.35-5.66,1.66-5.73,4.46-7.51,10.03-4.43,4.56,2.52,8.19.28,11.41-3.12,3.25-3.45,6.54-6.95,3.67-12.06-2.95-5.24-2.11-8.33,3.99-10.22,4.7-1.46,6.04-5.57,5.99-10.34-.05-4.96-.98-9.48-6.23-11.08ZM81.44,115.01c-7.57,3.08-9.53,8.63-6.09,15.74,2.64,5.47-1.02,6.94-4.37,9.09-1.3-.64-2.29-1.24-3.35-1.64-6.88-2.57-12.49-.29-15.5,6.83-1.16,2.73-2.23,4.29-5.42,4.27-2.77-.02-4.23-1.18-5.14-3.59-3.15-8.36-8.75-10.55-16.68-6.43-2.56,1.33-4.26.29-6.07-1.45-1.94-1.88-1.94-3.54-.98-6.09,2.98-7.88.97-12.72-6.75-16.01-2.84-1.2-4.19-2.61-4.11-5.63.06-2.69,1.35-4.02,3.87-4.93,8.03-2.92,10.27-8.41,6.54-16.16-1.11-2.28-1.31-4.16.66-6.21,2.11-2.2,4.03-2.58,6.85-1.3,7.33,3.35,12.8,1.01,15.72-6.36,1.07-2.71,1.96-4.45,5.24-4.45s4.35,1.4,5.54,4.15c3.25,7.48,8.23,9.47,15.64,6.3,2.67-1.14,4.49-1.71,6.76.72,2.14,2.28,2.04,4.1.92,6.88-2.9,7.17-1.06,12.74,6.67,15.49,2.61.93,4.4,2.04,4.45,5.37.06,3.39-1.9,4.39-4.4,5.41Z"/>
  <path class="cls-1" d="M244.74,165.04v-90.23c0-3.16-.06-6.32,1.54-9.21-.73-5.16-3.77-8.43-8.47-10.34-2.61-2.36-5.87-2.07-8.99-2.1-6.9-.07-13.86-.63-20.67.12-8.65.96-11.01-2.47-10.18-10.58.67-6.53.28-13.2.09-19.8-.38-13.04-9.18-22.57-22.18-22.68-38.2-.3-76.4-.3-114.59.03-12.13.11-21.1,9.37-21.68,21.4-.44,9.17-.15,18.38-.11,27.57.01,2.54-.23,5.79,3.44,5.73,3.69-.05,3.45-3.37,3.23-5.84-.43-4.75,1.22-6.53,6.21-6.51,44.22.15,88.45.1,132.68.04,3.89,0,6.48.37,6.4,5.45-.08,5.37-3.27,5.06-6.84,5.06-16.94-.03-33.89-.04-50.83.02-3.98.01-8.12-.5-11.53,2.37h0s-.01.01-.01.01c-6.18,2.91-8.72,8.16-8.74,14.6-.1,33.06-.15,66.12,0,99.18.05,9.45,4.22,14.08,13.89,16.88.01,0,.01-.01.02-.01,18.65.21,37.3.4,55.94.62,8.91.11,9.4.93,6.13,10.1-46.58.01-93.18.01-139.77.02-.01,0-.01,0-.02,0-1.03-.1-2.06-.21-3.09-.32-.12-3.41-.03-6.84-.41-10.22-.78-6.87,1.98-14.04-1.7-20.67h0c-6.12-2.06-4.96,2.66-4.98,5.67-.13,16.06-.23,32.12,0,48.18.18,13.16,8.65,22.77,21.82,22.93,38.14.47,76.28.41,114.42.01,10.1-.11,18.22-4.77,20.84-15.75,3.15-9.23,1.05-18.75,1.44-28.13.54-12.86-1.96-11.66,12.22-11.79,6.9-.06,13.81.21,20.69-.17,7.92-.43,13.53-4.21,15.33-12.42-1.6-2.89-1.55-6.06-1.55-9.21ZM191.34,32.84c-1.12,4.41-4.27,3.11-6.81,3.12-22.14.11-44.28.06-66.43.07-21.57.01-43.14-.17-64.7.12-5.65.08-7.31-1.63-7.3-7.3.02-16.62,4.87-21.97,21.21-21.98,34.8-.01,69.6-.02,104.39,0,15.48.02,23.48,10.82,19.64,25.96ZM191.37,211.5c-.35,2.53.02,5.16-.06,7.74-.3,10.08-5.89,16.69-15.74,16.77-37.87.28-75.75.3-113.63-.01-10-.09-15.46-7.05-15.69-17.79q-.33-14.82,14.08-14.82h58.54c21.52,0,43.04.27,64.56-.16,6.6-.13,8.82,1.96,7.94,8.27ZM236.78,172.36c-1,5.1-4.52,3.18-9.16,4.5-9.98,2.75-20.12,3.8-30.51,3.54-12.57-.33-25.17-.24-37.74-.03-9.29.16-18.14-1.83-26.93-4.42-6.37-1.7-11.21-1.7-11.14-8.84.29-28.9.01-64.58-.07-93.48,0-2.91,0-6.47,2.29-9.89,2.72-2.36,11.43-3.32,11.43-3.32,1.87.11,59.5,0,86.44.11,5.54.01,11.51-.88,15.32,4.09,2.98,6.01,4.57,12.56,4.55,19.09-.09,26.36,1.02,62.5-4.48,88.65Z"/>
  <path class="cls-1" d="M246.29,174.25c-1.6-2.89-1.55-6.06-1.55-9.21v-90.23c0-3.16-.06-6.32,1.54-9.21.29,36.21.26,72.43.01,108.65Z"/>
  <path class="cls-1" d="M247.38,165.82c-.01,2.81-.71,5.62-1.09,8.43-1.6-2.89-1.55-6.06-1.55-9.21v-90.23c0-3.16-.06-6.32,1.54-9.21.39,2.81,1.11,5.62,1.11,8.43.08,30.6.07,61.19,0,91.79Z"/>
  <path class="cls-1" d="M138.08,21.29c.05,2.79-1.97,3.17-4.09,3.19-5.17.05-10.33.02-15.5.02v-.04c-4.88,0-9.76.05-14.64-.02-2.01-.04-4.2-.18-4.22-3.03-.01-2.11,1.41-3.26,3.26-3.28,10.61-.14,21.22-.19,31.83-.09,1.73.02,3.32,1.13,3.36,3.25Z"/>
  <path class="cls-1" d="M118.99,208.87c-6.61-.1-10.68,3.61-10.83,10.52-.15,6.98,4.06,10.16,10.46,11.18,6.48-.76,10.81-3.87,10.86-10.8.06-6.8-3.82-10.81-10.49-10.9ZM118.37,223.72c-2.28-.2-3.52-1.9-3.45-4.12.08-2.67,1.58-4.14,4.41-3.93,2.5.18,3.21,1.94,3.62,3.89-.52,2.64-1.87,4.4-4.58,4.16Z"/>
  <path class="cls-1" d="M46.18,88.3c-11.68.03-22.06,10.53-21.99,22.22.07,11.91,10.17,22.1,21.98,22.17,11.95.08,22.11-9.77,22.38-21.71.27-12.16-10.15-22.73-22.37-22.68ZM46.79,125.94c-8.22.23-15.66-6.78-15.89-14.99-.24-8.17,6.83-15.61,15.08-15.87,8.2-.26,15.57,6.76,15.79,15.04.21,8.33-6.65,15.58-14.98,15.82Z"/>
  <path class="cls-1" d="M231.09,76.58c-.15-5.62-2.09-7.58-7.61-7.48-14.05.23-28.11.08-42.16.07h-29.26c-22.94,0-22.73-.01-22.37,22.93.1,6.42,2.26,8.3,8.58,8.22,23.51-.33,47.04-.13,70.56-.13s22.91,0,22.26-23.61ZM224.22,84.02c-.4,4.54,1.63,9.66-6.67,9.51-24.93-.45-49.87-.39-74.79-.02-7.64.11-6.27-4.54-6.4-8.99-.15-4.81-.57-8.98,6.75-8.66,12.58.55,25.21.16,37.82.15,12.03,0,24.08.37,36.1-.15,6.65-.29,7.67,2.74,7.19,8.16Z"/>
  <path class="cls-1" d="M211.43,107.19q-20.11,0-20.09,19.8c0,1.44.11,2.88-.02,4.3-.51,5.34,2.08,7.1,7.13,6.92,6.88-.25,13.77-.06,20.65-.07q11.86,0,11.86-11.51.01-19.43-19.53-19.44ZM223.99,129.13c-.69,1.62-1.74,2.16-3.21,2.17-6.28.05-12.59.31-18.86-.05-6.25-.37-3.58-5.57-3.58-8.62s-2.65-8.08,3.64-8.6c3.12-.25,6.28-.04,9.43-.04v-.04h2.57c9.25.01,13.6,6.69,10.01,15.18Z"/>
  <path class="cls-1" d="M167.52,109.05c-3.33-5.08-12.41-1.18-18.88-1.83-2.28-.23-4.6-.04-6.9-.04q-11.88,0-11.91,11.76-.06,19.22,18.92,19.21c4.89-.02,9.77-.02,14.66-.01,2.76,0,5.59-.34,5.58-3.82-.05-8.55,3.09-18.3-1.47-25.27ZM149.16,131.79c-5.05-1.91-13.01,3.72-13.05-7.56-.02-8.08,1.81-11.78,10.32-10.33,2.22.37,4.61.35,6.84,0,7.51-1.2,9.44,1.77,9.69,9.3.43,13.12-9.19,6.13-13.8,8.59Z"/>
  <path class="cls-1" d="M211.45,152.37c-4.87,0-9.73.06-14.59-.03-2.3-.04-5.07-.22-5.01-3.29.05-2.45,2.5-2.88,4.55-2.88,10.02-.04,20.03-.04,30.05.04,2.06.02,4.3.56,4.13,3.23-.17,2.62-2.54,2.81-4.53,2.86-4.86.1-9.73.03-14.59.03,0,.01,0,.03,0,.04Z"/>
  <path class="cls-1" d="M149.34,152.28c-5.18,0-10.35.02-15.53-.02-1.97-.02-3.49-1.06-3.48-3.03,0-1.98,1.57-2.98,3.52-2.98,10.35-.04,20.7-.07,31.06-.02,1.74,0,3.59.44,3.82,2.62.29,2.76-1.73,3.37-3.86,3.41-5.18.09-10.35.03-15.53.02Z"/>
  <path class="cls-1" d="M144.49,160.36c2.86,0,5.73-.03,8.59.01,2.32.03,4.98.05,5.17,3.12.19,3.03-2.24,3.66-4.69,3.68-6.3.05-12.6.03-18.9.01-2.22,0-4.1-.83-4.26-3.27-.21-3.23,2.22-3.53,4.64-3.55,3.15-.03,6.3,0,9.45,0Z"/>
  <path class="cls-1" d="M205.63,167.12c-3.42,0-6.84.12-10.25-.04-2.23-.11-3.92-1.42-3.63-3.79.22-1.8,1.77-2.85,3.69-2.85,7.12-.01,14.24-.07,21.35.09,1.78.04,3.27,1.24,3.23,3.24-.04,1.97-1.52,3.15-3.3,3.25-3.69.2-7.4.06-11.1.06,0,.02,0,.03,0,.05Z"/>
  <path class="cls-1" d="M138.08,21.29c.05,2.79-1.97,3.17-4.09,3.19-5.17.05-10.33.02-15.5.02v-.04c-4.88,0-9.76.05-14.64-.02-2.01-.04-4.2-.18-4.22-3.03-.01-2.11,1.41-3.26,3.26-3.28,10.61-.14,21.22-.19,31.83-.09,1.73.02,3.32,1.13,3.36,3.25Z"/>
  <path class="cls-1" d="M118.99,208.87c-6.61-.1-10.68,3.61-10.83,10.52-.15,6.98,4.06,10.16,10.46,11.18,6.48-.76,10.81-3.87,10.86-10.8.06-6.8-3.82-10.81-10.49-10.9ZM118.37,223.72c-2.28-.2-3.52-1.9-3.45-4.12.08-2.67,1.58-4.14,4.41-3.93,2.5.18,3.21,1.94,3.62,3.89-.52,2.64-1.87,4.4-4.58,4.16Z"/>
  <path class="cls-1" d="M46.18,88.3c-11.68.03-22.06,10.53-21.99,22.22.07,11.91,10.17,22.1,21.98,22.17,11.95.08,22.11-9.77,22.38-21.71.27-12.16-10.15-22.73-22.37-22.68ZM46.79,125.94c-8.22.23-15.66-6.78-15.89-14.99-.24-8.17,6.83-15.61,15.08-15.87,8.2-.26,15.57,6.76,15.79,15.04.21,8.33-6.65,15.58-14.98,15.82Z"/>
</svg>