<?xml version="1.0" encoding="UTF-8"?>
<svg id="Layer_1" data-name="Layer 1" xmlns="http://www.w3.org/2000/svg" viewBox="0 0 463.06 431.16">
  <defs>
    <style>
      .cls-1 {
        fill: #fff;
        stroke-width: 0px;
      }
    </style>
  </defs>
  <path class="cls-1" d="M143.68,351.09h303.17V47.87c-1.84,0-3.75,0-5.66,0-47.4,0-94.81,0-142.21,0-1.5,0-3.01.11-4.49-.06-4.29-.48-7.25-3.91-7.02-8.19.24-4.44,2.72-7.09,7.09-7.59,2.79-.32,5.65-.1,8.48-.1,49.73,0,99.46,0,149.2.01,8.55,0,10.82,2.3,10.82,10.97,0,104.45,0,208.91,0,313.36,0,8.66-2.28,10.97-10.83,10.97-104.62,0-209.24,0-313.86,0-8.26,0-10.61-2.37-10.61-10.67,0-30.6-.02-61.21.01-91.81,0-6.23,3.66-9.87,9.02-9.21,4.4.54,6.88,3.83,6.89,9.37.02,26.61.01,53.23.01,79.84,0,1.97,0,3.94,0,6.34Z"/>
  <path class="cls-1" d="M135.99,0c41.57,0,83.13,0,124.7,0,8.37,0,10.74,2.33,10.74,10.54,0,59.52,0,119.04,0,178.57,0,7.96-2.46,10.46-10.33,10.46-28.76.01-57.53-.05-86.29.13-2.57.02-5.51,1.05-7.62,2.54-8.55,6.04-16.8,12.48-25.23,18.7-4.98,3.68-7.57,3.64-12.54-.06-8.14-6.05-16.1-12.34-24.42-18.12-2.5-1.74-5.93-3.01-8.95-3.04-28.43-.23-56.86-.13-85.29-.15-8.39,0-10.76-2.32-10.76-10.52C0,129.53,0,70.01,0,10.49,0,2.33,2.41,0,10.79,0,52.53,0,94.26,0,135.99,0ZM16.15,183.64c2.2,0,4,0,5.8,0,26.44,0,52.87-.11,79.31.14,3.21.03,6.85,1.31,9.52,3.14,7.55,5.14,14.77,10.77,21.96,16.4,2.28,1.79,3.85,1.67,6.06-.05,6.55-5.11,13.44-9.8,19.84-15.08,4.25-3.51,8.7-4.71,14.15-4.66,25.77.22,51.54.1,77.32.1,1.74,0,3.48,0,5.15,0V16.22H16.15v167.43Z"/>
  <path class="cls-1" d="M175.62,319.27h239.17V79.81c-1.85,0-3.77,0-5.7,0-36.76,0-73.52,0-110.27,0-.67,0-1.33.01-2,0-5.94-.06-9.33-2.93-9.38-7.92-.04-5.01,3.33-8,9.25-8.01,25.78-.03,51.56-.02,77.34-.02,15.8,0,31.6-.01,47.4.02,6.96.01,9.67,2.69,9.67,9.61.01,83.99.02,167.99,0,251.98,0,7.22-2.66,9.82-9.97,9.82-83.83.01-167.66,0-251.49,0-7.31,0-9.95-2.61-9.96-9.82-.02-20.13-.02-40.25,0-60.38,0-6.29,2.98-9.72,8.18-9.59,4.95.13,7.72,3.49,7.73,9.55.03,16.13,0,32.27.01,48.4,0,1.79,0,3.58,0,5.81Z"/>
  <path class="cls-1" d="M295.91,383.24c51.53,0,103.06,0,154.59,0,1.83,0,3.69-.18,5.48.08,4.35.62,6.82,3.22,7.05,7.65.22,4.24-2.8,7.66-7.07,8.17-1.15.13-2.32.05-3.49.05-104.72,0-209.44.02-314.17-.14-2.99,0-6.79-1.18-8.71-3.22-1.52-1.61-1.86-6.04-.71-8.04,1.27-2.21,4.84-4.29,7.45-4.34,18.28-.37,36.57-.2,54.85-.21,34.91,0,69.81,0,104.72,0Z"/>
  <path class="cls-1" d="M295.15,431.12c-52.4,0-104.8.06-157.19-.15-2.95-.01-6.61-1.43-8.59-3.49-1.43-1.49-1.35-5.33-.65-7.76,1.03-3.58,4.35-4.57,8-4.56,21.13.05,42.25.02,63.38.02,83.84,0,167.67,0,251.51.01,1.5,0,3.01-.1,4.49.07,4.06.47,6.9,3.71,6.96,7.77.06,4.06-2.71,7.44-6.72,7.99-1.64.22-3.32.1-4.98.1-52.06,0-104.13,0-156.19,0Z"/>
  <path class="cls-1" d="M249.7,232.19c-2.75,3.53-5.24,6.17-7.1,9.2-6.62,10.73-12.96,21.63-19.58,32.36-1.73,2.81-3.66,5.88-6.3,7.64-3.84,2.57-8.23,4.81-12.69,5.8-4.3.95-7.17-2.36-7.98-6.52-.75-3.85,1.01-7.31,4.68-8.37,5.02-1.45,7.65-5.02,10.08-8.98,6.66-10.9,13.14-21.91,19.86-32.77,1.74-2.8,3.99-5.32,6.22-7.77,7.59-8.36,18.93-8.44,25.99.43,5.66,7.11,10.49,14.9,15.45,22.54,4.78,7.37,9.22,14.96,13.88,22.41,2.37,3.79,5.35,3.52,8.14.61,4.25-4.44,8.22-9.14,12.42-13.62,4.65-4.96,9.2-10.07,14.22-14.64,8.47-7.71,19.43-7.95,27.95-.17,6.47,5.91,12.02,12.83,18.14,19.15,4.86,5.02,8.59,11.29,16.56,12.7,3.86.68,5.72,4.49,4.92,8.63-.78,4.03-3.38,6.47-7.61,6.56-5.96.12-11.14-2.18-15.24-6.3-5.85-5.88-11.32-12.14-16.97-18.22-2.83-3.04-5.65-6.1-8.56-9.05-3.23-3.28-6.69-3.58-9.97-.13-4.12,4.33-8.05,8.84-12.16,13.19-4.78,5.07-9.34,10.41-14.57,14.99-9.58,8.39-20.4,7.53-28.28-2.31-4.96-6.19-9.26-12.94-13.51-19.66-4.26-6.72-8-13.77-12.17-20.55-1.42-2.32-3.45-4.27-5.8-7.13Z"/>
  <path class="cls-1" d="M393.41,163.31c-.27,24.11-19.73,43.34-43.64,43.12-23.52-.21-43.05-19.96-42.97-43.47.08-24.54,19.91-43.54,45.06-43.18,22.91.33,41.82,20.14,41.55,43.53ZM377.32,163.26c.06-15.08-12.04-27.44-26.97-27.54-14.96-.1-27.19,12.15-27.19,27.25,0,15.18,12.05,27.26,27.16,27.18,14.9-.07,26.95-12.07,27.01-26.89Z"/>
  <path class="cls-1" d="M72.94,81.84c12.14,0,21.81,9.66,21.83,21.79.03,12.45-9.6,22.1-22.04,22.09-12.13-.01-21.82-9.69-21.84-21.79-.02-12.46,9.6-22.09,22.05-22.08ZM73.89,110.54c1.63-2.16,3.91-4.1,4.71-6.53.92-2.81-2.64-6.29-5.72-6.12-3.44.18-5.52,2.23-5.92,5.61-.37,3.03,2.76,6.19,6.94,7.04Z"/>
  <path class="cls-1" d="M136.03,81.83c12.32.11,21.79,9.97,21.62,22.5-.17,12.04-9.98,21.46-22.26,21.38-12.3-.09-21.78-9.95-21.62-22.51.15-12,10.02-21.48,22.26-21.37ZM134.03,97.61c-1.16,1.67-3.68,3.75-4.01,6.13-.49,3.54,2.21,5.95,5.86,5.88,3.39-.07,5.65-2.34,5.67-5.76.02-3.69-2.42-5.59-7.52-6.25Z"/>
  <path class="cls-1" d="M176.66,103.68c0-12.16,9.63-21.81,21.77-21.84,12.47-.03,22.12,9.59,22.1,22.02-.03,12.19-9.62,21.81-21.77,21.85-12.44.04-22.11-9.59-22.1-22.03ZM199.86,97.52c-5.01,1.01-7.37,3.01-7.09,6.72.26,3.38,2.59,5.36,6.03,5.43,3.08.07,6.54-3.53,5.54-6.28-.88-2.4-3.21-4.28-4.48-5.87Z"/>
</svg>