<?xml version="1.0" encoding="UTF-8"?>
<svg id="Layer_1" data-name="Layer 1" xmlns="http://www.w3.org/2000/svg" viewBox="0 0 612 792">
  <defs>
    <style>
      .cls-1 {
        fill: #fff;
        stroke-width: 0px;
      }
    </style>
  </defs>
  <path class="cls-1" d="M472.16,387.85c-7.06-2.39-13.86-4.46-20.42-7.13-1.25-.51-2.14-3.42-2.15-5.22-.14-25.33-.08-50.66-.1-76,0-10.88-2.43-21.14-8.3-30.39-6.91-10.89-16.45-16.7-29.83-16.67-80.5.18-160.99.09-241.49.09-19.02,0-30.67,7.81-36.86,25.88-2.28,6.66-3.78,13.94-3.82,20.95-.3,55-.24,109.99-.12,164.99.03,14.27,3.97,27.3,14.28,37.77,6,6.1,13.17,9.1,21.91,9.07,53.16-.13,106.33-.02,159.49-.17,3.97-.01,5.8,1.13,7.21,4.86,2.28,6.01,5.37,11.71,8.46,18.27h-5.97c-55.33,0-110.66-.34-165.99.14-27.22.24-44.28-13.55-55.4-36.71-5.04-10.49-7.06-21.79-7.06-33.43,0-54.83-.07-109.66.03-164.49.03-19.3,5.67-36.75,18.56-51.43,10.79-12.28,24.34-18.77,40.85-18.76,82.5.01,164.99-.07,247.49.05,25.43.04,46.34,16.27,54.94,43.08,2.66,8.28,4.27,17.23,4.44,25.92.55,28.49.21,56.99.19,85.49,0,1.26-.24,2.53-.37,3.84Z"/>
  <path class="cls-1" d="M426.37,562.54c-43.83.14-80.05-35.9-80.09-79.68-.04-43.73,35.77-79.83,79.27-79.91,44.39-.08,80.35,35.26,80.45,79.08.11,44.48-35.4,80.37-79.64,80.5ZM436.6,472.32c0-2.87,0-4.85,0-6.83,0-6.49.14-12.99-.07-19.48-.19-5.92-2.49-7.93-8.43-8.03-1.5-.02-3-.05-4.5,0-5.24.18-7.5,2.41-7.56,7.72-.08,6.99-.35,14.01.09,20.97.31,4.87-1.58,5.97-5.97,5.72-5.64-.32-11.32-.08-16.98-.08-10.44,0-11.89,1.47-11.74,11.79.1,6.78,2.16,8.92,9.02,9.02,6.83.1,13.66.22,20.48-.05,3.83-.15,5.35.84,5.17,4.95-.32,7.15-.14,14.32-.07,21.48.06,5.68,2.15,7.72,7.88,7.91,1.5.05,3,.04,4.5,0,5.69-.16,7.89-2.11,8.12-7.8.22-5.49.06-10.99.07-16.48,0-3.23,0-6.46,0-9.99,9.3,0,17.62.25,25.91-.15,2.5-.12,6.69-1.65,7.04-3.22.99-4.48,1.34-9.61.02-13.88-.6-1.93-5.73-3.23-8.89-3.42-7.76-.48-15.56-.16-24.07-.16Z"/>
  <path class="cls-1" d="M204.54,336.17c1.04-35.3,15.25-45.59,37.33-45.66,20.59-.07,36.02,8.5,38.3,46.36,6.2.13,6.8,4.76,7.23,9.63.62,7.08-.72,13.68-5.2,19.25-1.52,1.88-4.19,2.82-6.28,4.26-1.12.77-2.37,1.52-3.13,2.59-3.58,4.98-6.83,10.21-10.58,15.05-2.22,2.87-3.59,5.66-2.15,9.14,1.49,3.61,4.48,5.15,8.29,5.33,5.31.24,10.72-.04,15.89.92,15.81,2.94,27.28,16.67,27.83,32.7.12,3.49.17,6.99.09,10.49-.18,7.85-4.26,11.92-12.2,11.94-26.65.06-53.29.03-79.94.03-11.82,0-23.65.05-35.47-.02-7.99-.05-12.19-4.39-12.5-12.32-.44-11.22.61-21.99,8.33-30.99,7.11-8.3,16.09-12.66,27.08-12.72,3-.02,6.21.64,8.93-.22,2.89-.92,6.06-2.75,7.77-5.14,2.09-2.92.62-6.19-1.83-9-2.94-3.37-5.65-6.98-8.08-10.73-2.17-3.34-3.95-6.16-8-8.37-3.83-2.1-6.36-7.9-7.84-12.59-1.29-4.07-.93-8.98-.12-13.29.48-2.54,3.25-4.65,4.99-6.95l1.27.32Z"/>
  <path class="cls-1" d="M280.44,388.91c-1.21-5.38-.35-8.42,4.3-11.71,4.56-3.22,7.48-9.05,10.42-14.14,1.47-2.54,2.37-4.07,5.69-4.05,26.48.15,52.96.06,79.44.1,7.63.01,10.62,3.04,10.71,10.55.02,1.33,0,2.66,0,4,0,10.81-4.45,15.24-15.45,15.25-30.14.02-60.29,0-90.43,0h-4.67Z"/>
  <path class="cls-1" d="M284.84,305.09h14.17c26.48,0,52.96,0,79.44,0,10.06,0,12.54,2.53,12.54,12.75,0,2.66.09,5.33-.03,7.99-.27,5.71-3.44,9.03-9.12,9.04-28.15.08-56.29.08-84.44,0-4.85-.01-6.78-4.32-7.82-7.71-2.17-7.07-3.19-14.49-4.75-22.08Z"/>
  <path class="cls-1" d="M347.34,413.38c-5.05,9.18-10.11,18.08-14.88,27.14-2.39,4.55-6.13,1.45-8.62,2.25-2.14-9.9-4.24-19.59-6.36-29.39h29.86Z"/>
</svg>