<?xml version="1.0" encoding="UTF-8"?>
<svg id="Layer_1" data-name="Layer 1" xmlns="http://www.w3.org/2000/svg" viewBox="0 0 250.87 142.83">
  <defs>
    <style>
      .cls-1 {
        fill: #fff;
        stroke-width: 0px;
      }
    </style>
  </defs>
  <path class="cls-1" d="M212.93,124.78c6.82,0,12.98-.33,19.07.16,2.41.2,5.65,1.66,6.78,3.57,1.71,2.88.04,5.78-2.62,8.24-4.96,4.58-10.43,6.08-17.21,6.06-67.32-.22-134.63-.23-201.95.01-6.89.02-11.28-3.53-15.48-7.68-1.38-1.36-1.95-4.89-1.17-6.68.75-1.73,3.66-3.38,5.73-3.52,6.44-.45,12.93-.16,20.18-.16,0-2.47,0-4.56,0-6.65,0-36.32,0-72.65,0-108.97C26.26,2.02,28.31.01,35.47.01,91.29,0,147.11,0,202.93,0c8.14,0,10.03,1.92,10.02,9.94-.01,4.83.07,9.66.13,14.49,0,.26.28.52.8,1.4,3.27-3.2,6.38-6.31,9.56-9.35,5.41-5.17,10.87-5.19,16.26-.04,2.29,2.18,4.51,4.44,6.72,6.71,5.99,6.14,5.94,11.53-.25,17.69-8.03,7.99-15.72,16.38-24.3,23.73-6.91,5.93-9.76,12.34-9.15,21.53.83,12.59.21,25.28.21,38.69ZM193.03,22.14H46.51v89.54h146.14v-22.67c-2.06.4-3.66.69-5.24,1.02-4.39.89-8.77,1.87-13.18,2.67-2.23.4-4.36-.08-3.73-3.01,2.87-13.27,2.98-27.77,16.16-36.54,1.76-1.17,3.14-2.97,4.57-4.59.74-.84,1.71-1.9,1.73-2.87.14-7.78.08-15.56.08-23.55ZM41.86,116.36V17.73h155.67v24.13c6.34-5.69,12.5-9.7,10.88-18.71-.75-4.2-.41-8.66-.06-12.97.35-4.36-1.04-5.68-5.54-5.67-55.49.15-110.98.15-166.47,0-4.51-.01-5.57,1.37-5.56,5.67.15,36.33.09,72.65.1,108.98,0,1.76.18,3.52.28,5.26h176.61v-45.48c-2.45,2.34-4,4.47-6.09,5.68-4.36,2.53-4.51,6.35-4.4,10.65.18,6.94.05,13.89.05,21.09H41.86ZM236.24,129.94c-2.95-.26-4.37-.5-5.79-.5-25.49-.03-50.98-.09-76.46.1-2.06.02-4.1,1.83-6.17,2.77-2.49,1.13-4.97,3.12-7.49,3.18-13.82.31-27.66.34-41.48-.01-2.62-.07-5.18-2.28-7.77-3.51-1.78-.84-3.56-2.41-5.35-2.42-25.82-.16-51.64-.11-77.46-.08-1.35,0-2.7.32-5.23.64,4.44,4.5,7.58,8.24,13.48,8.23,68.47-.06,136.94-.09,205.42.06,6.19.01,9.46-3.7,14.31-8.44ZM191.81,75.5c13.7-13.78,27.06-27.22,40.43-40.64,3.01-3.03.57-4.05-.74-4.83-14.56,14.33-28.74,28.28-43.05,42.36.85.78,1.8,1.66,3.36,3.11ZM183.62,68.22c14.84-14.75,28.94-28.76,43.28-43.01-.89-.76-1.94-1.66-2.67-2.28-14.33,14.27-28.32,28.2-42.61,42.43.74,1.07,1.55,2.23,1.99,2.86ZM237.88,36.47c-14.21,14.29-28.21,28.37-42.41,42.66,1.08,1.99,2.37,3.26,4.94.7,12.69-12.67,25.42-25.3,38.23-37.86,2.33-2.29,2.02-3.84-.75-5.5ZM244.53,35.37c3.12-4.85,2.12-6.85-8.1-15.88-2.72-2.41-5.51-3.38-8.16-.92,5.55,5.74,10.91,11.28,16.26,16.8ZM192.2,83.74c-4.3-4.43-8.41-8.68-12.62-13.01-2.29,4.19-2.02,7.46,1.6,11.07,3.61,3.61,6.8,4.86,11.02,1.94ZM96.85,129.74c.04.26.09.51.13.77h45.31c0-.26,0-.51-.01-.77h-45.43Z"/>
  <path class="cls-1" d="M177.81,100.9c1.6,4.47-.99,4.39-3.72,4.39-26-.03-51.99-.03-77.99-.04-13.66,0-27.31,0-41.45,0-.11-1.47-.21-2.81-.32-4.35h123.49Z"/>
  <path class="cls-1" d="M54.5,28.47c13.07,0,25.82-.05,38.58.11.8,0,2.27,1.57,2.28,2.42.16,9.93.1,19.87.1,30.13h-40.96V28.47ZM58.52,56.35h32.25v-23.59c-10.15,0-19.92-.07-29.68.13-.87.02-2.42,1.77-2.45,2.76-.22,6.77-.11,13.56-.11,20.71Z"/>
  <path class="cls-1" d="M164.84,42.79v4.63c-3.46,0-6.76,0-10.05,0-16.14,0-32.29.07-48.43-.11-1.54-.02-1.64-4.41-.16-4.43,19.45-.14,38.9-.09,58.64-.09Z"/>
  <path class="cls-1" d="M78.06,79.98c-.11,6.77-5.73,12.37-12.5,12.46-6.53.08-12.44-5.97-12.3-12.59.15-7,5.57-12.32,12.47-12.24,6.91.08,12.43,5.62,12.33,12.36ZM73.33,80.09c.04-4.59-3.28-8.1-7.65-8.08-4.4.02-7.75,3.48-7.74,8.02,0,4.51,3.38,7.8,7.92,7.74,4.22-.06,7.42-3.35,7.47-7.67Z"/>
  <path class="cls-1" d="M165.15,79.95c0,6.79-5.77,12.6-12.35,12.44-6.78-.17-12.46-5.88-12.45-12.52.01-6.68,5.74-12.28,12.51-12.24,7.01.04,12.28,5.33,12.29,12.31ZM152.76,71.98c-4.36.04-7.79,3.64-7.71,8.11.08,4.41,3.67,7.8,8.1,7.64,4.26-.15,7.42-3.44,7.47-7.77.05-4.34-3.58-8.01-7.87-7.98Z"/>
  <path class="cls-1" d="M109.26,67.65c6.86-.01,12.53,5.58,12.45,12.27-.08,6.71-5.76,12.39-12.47,12.49-6.62.1-12.22-5.6-12.29-12.52-.07-6.92,5.27-12.23,12.32-12.24ZM117.15,80.06c.12-4.25-3.51-7.95-7.89-8.03-4-.07-7.71,3.41-7.94,7.48-.24,4.3,3.23,8.04,7.63,8.21,4.36.16,8.07-3.3,8.19-7.65Z"/>
  <path class="cls-1" d="M112.58,32.61c-1.99,0-4,.16-5.95-.1-.61-.08-1.49-1.3-1.49-1.99,0-.68.95-1.9,1.53-1.93,3.64-.16,7.29-.15,10.93.05.56.03,1.46,1.29,1.45,1.97,0,.69-.87,1.83-1.51,1.94-1.61.28-3.3.09-4.96.09,0-.01,0-.03,0-.04Z"/>
  <path class="cls-1" d="M135.38,32.61c-1.99,0-4,.16-5.95-.1-.61-.08-1.49-1.3-1.49-1.99,0-.68.95-1.9,1.53-1.93,3.64-.16,7.29-.15,10.93.05.56.03,1.46,1.29,1.45,1.97,0,.69-.87,1.83-1.51,1.94-1.61.28-3.3.09-4.96.09,0-.01,0-.03,0-.04Z"/>
  <path class="cls-1" d="M158.18,32.61c-1.99,0-4,.16-5.95-.1-.61-.08-1.49-1.3-1.49-1.99,0-.68.95-1.9,1.53-1.93,3.64-.16,7.29-.15,10.93.05.56.03,1.46,1.29,1.45,1.97,0,.69-.87,1.83-1.51,1.94-1.61.28-3.3.09-4.96.09,0-.01,0-.03,0-.04Z"/>
</svg>